<svg xmlns="http://www.w3.org/2000/svg" xmlns:xlink="http://www.w3.org/1999/xlink" viewBox="0,0,256,256" width="24px" height="24px"><g fill="#3366cc" fill-rule="nonzero" stroke="none" stroke-width="1" stroke-linecap="butt" stroke-linejoin="miter" stroke-miterlimit="10" stroke-dasharray="" stroke-dashoffset="0" font-family="none" font-weight="none" font-size="none" text-anchor="none" style="mix-blend-mode: normal"><path d="M0,256v-256h256v256z" id="bgRectangle"></path></g><g fill="#ffffff" fill-rule="nonzero" stroke="none" stroke-width="1" stroke-linecap="butt" stroke-linejoin="miter" stroke-miterlimit="10" stroke-dasharray="" stroke-dashoffset="0" font-family="none" font-weight="none" font-size="none" text-anchor="none" style="mix-blend-mode: normal"><g transform="scale(10.66667,10.66667)"><path d="M5.75,3c-1.50998,0 -2.75,1.24002 -2.75,2.75v12.5c0,1.50998 1.24002,2.75 2.75,2.75h12.5c1.50998,0 2.75,-1.24002 2.75,-2.75v-12.5c0,-1.50998 -1.24002,-2.75 -2.75,-2.75zM5.75,4.5h12.5c0.70002,0 1.25,0.54998 1.25,1.25v12.5c0,0.70002 -0.54998,1.25 -1.25,1.25h-12.5c-0.70002,0 -1.25,-0.54998 -1.25,-1.25v-12.5c0,-0.70002 0.54998,-1.25 1.25,-1.25zM13.23828,6.99023c-0.00456,0.00061 -0.00912,0.00126 -0.01367,0.00195c-0.02023,0.00048 -0.04043,0.00179 -0.06055,0.00391c-0.02227,0.00226 -0.04443,0.00552 -0.06641,0.00977c-0.00261,0.00064 -0.00521,0.00129 -0.00781,0.00195c-0.00588,0.00188 -0.01174,0.00383 -0.01758,0.00586c-0.01509,0.00344 -0.03007,0.00735 -0.04492,0.01172c-0.00719,0.00185 -0.01435,0.0038 -0.02149,0.00586c-0.01985,0.00699 -0.0394,0.01481 -0.05859,0.02344c-0.02267,0.00996 -0.04483,0.02105 -0.06641,0.0332c-0.01733,0.00974 -0.03427,0.02016 -0.05078,0.03125c-0.01535,0.00987 -0.03033,0.02029 -0.04492,0.03125c-0.00328,0.00323 -0.00654,0.00648 -0.00976,0.00977c-0.01479,0.01182 -0.02912,0.0242 -0.04297,0.03711c-0.00528,0.00513 -0.01049,0.01034 -0.01562,0.01563c-0.01078,0.01139 -0.0212,0.02311 -0.03125,0.03516c-0.00665,0.00703 -0.01316,0.0142 -0.01953,0.02148c-0.00811,0.01085 -0.01593,0.02193 -0.02344,0.0332c-0.01026,0.01398 -0.02003,0.02831 -0.0293,0.04297c-0.01194,0.01902 -0.02302,0.03858 -0.0332,0.05859c-0.00402,0.0071 -0.00793,0.01426 -0.01172,0.02148c-0.0063,0.01414 -0.01216,0.02847 -0.01758,0.04297c-0.00341,0.0084 -0.00666,0.01687 -0.00976,0.02539c-0.00429,0.01356 -0.0082,0.02724 -0.01172,0.04102c-0.00364,0.01358 -0.0069,0.02725 -0.00977,0.04102c-0.00206,0.00713 -0.00401,0.01429 -0.00586,0.02148c-0.00147,0.00909 -0.00277,0.01821 -0.00391,0.02734c-0.00383,0.02459 -0.00644,0.04936 -0.00781,0.07422c-0.00118,0.01625 -0.00183,0.03254 -0.00195,0.04883c0,0.00065 0,0.0013 0,0.00195v6.25c0,0.83793 -0.66207,1.5 -1.5,1.5c-0.83793,0 -1.5,-0.66207 -1.5,-1.5c0,-0.65817 0.41718,-1.20652 0.99414,-1.41211c0.39048,-0.13861 0.59467,-0.56753 0.45605,-0.95801c-0.13861,-0.39048 -0.56753,-0.59467 -0.95801,-0.45605c-1.16304,0.41442 -1.99219,1.53034 -1.99219,2.82617c0,1.64807 1.35193,3 3,3c1.64807,0 3,-1.35193 3,-3v-3.12695c0.59666,0.49662 1.28969,0.82865 1.99609,1.08203c0.25507,0.10426 0.54678,0.06026 0.75975,-0.11459c0.21298,-0.17486 0.31293,-0.45241 0.26032,-0.7229c-0.0526,-0.27049 -0.24928,-0.49036 -0.51227,-0.57266c-0.72939,-0.26163 -1.33738,-0.57969 -1.75586,-1.00391c-0.41748,-0.42321 -0.69216,-0.9486 -0.75,-1.83398c-0.00014,-0.00211 0.00014,-0.00374 0,-0.00586c-0.00137,-0.02485 -0.00398,-0.04962 -0.00781,-0.07422c-0.00395,-0.02499 -0.00917,-0.04976 -0.01562,-0.07422c-0.00601,-0.02377 -0.01318,-0.04724 -0.02148,-0.07031c-0.00805,-0.02256 -0.01717,-0.04472 -0.02734,-0.06641c-0.00065,-0.0013 -0.0013,-0.00261 -0.00195,-0.00391c-0.00065,-0.0013 -0.0013,-0.00261 -0.00195,-0.00391c-0.02137,-0.04337 -0.04687,-0.08458 -0.07617,-0.12305c-0.01532,-0.01968 -0.03162,-0.03858 -0.04883,-0.05664c-0.01733,-0.01849 -0.03558,-0.03609 -0.05469,-0.05273c-0.01815,-0.01588 -0.03705,-0.03087 -0.05664,-0.04492c-0.00065,-0.00065 -0.0013,-0.0013 -0.00195,-0.00195c-0.00644,-0.00466 -0.01295,-0.00922 -0.01953,-0.01367c-0.01775,-0.01184 -0.03599,-0.02292 -0.05469,-0.0332c-0.00324,-0.00198 -0.0065,-0.00393 -0.00977,-0.00586c-0.01913,-0.00995 -0.03868,-0.01908 -0.05859,-0.02734c-0.00325,-0.00132 -0.0065,-0.00263 -0.00977,-0.00391c-0.01797,-0.00721 -0.03621,-0.01373 -0.05469,-0.01953c-0.01996,-0.00605 -0.04016,-0.01126 -0.06055,-0.01562c-0.0013,-0.00065 -0.0026,-0.00131 -0.00391,-0.00195c-0.00065,0 -0.0013,0 -0.00195,0c-0.02388,-0.00508 -0.048,-0.00899 -0.07226,-0.01172c-0.01947,-0.00207 -0.03902,-0.00337 -0.05859,-0.00391c-0.01365,-0.00103 -0.02733,-0.00168 -0.04102,-0.00195z"></path></g></g></svg>